# xmcd
#
# Track frame offsets:
# 150
# 14350
# 27050
# 36325
# 58200
# 69912
# 79350
# 95225
# 105462
# 120312
#
# Disc length: 1921 seconds
#
#
# Revision: 0
# Processed by: cddbd v1.5.1PL2 Copyright (c) Steve Scherf et al.
# Submitted via: FreeRIP 2.51 
#
DISCID=7e077f0a
DTITLE=Cracker Barrell - Christmas Favorites
DYEAR=1900
DGENRE=Christmas
TTITLE0=Rudolph, The Red-Nosed Reindeer
TTITLE1=Have Yourself a Merry Little Christmas
TTITLE2=Holly Jolly Christmas
TTITLE3=The Christmas Shoes
TTITLE4=Peace on Earth - Little Drummer Boy
TTITLE5=Rockin' Around the Christmas Tree
TTITLE6=New Star Shining
TTITLE7=Six Tons of Toys
TTITLE8=O Little Town of Bethlehem
TTITLE9=The Christmas Guest
EXTD=
EXTT0=
EXTT1=
EXTT2=
EXTT3=
EXTT4=
EXTT5=
EXTT6=
EXTT7=
EXTT8=
EXTT9=
PLAYORDER=
